# xmcd CD database file
#
# Track frame offsets:
#	183
#	10810
#	22128
#	34850
#	47630
#	58113
#	70130
#	84520
#	95155
#	109213
#	120453
#	130930
#	142305
#	152925
#	163695
#	181993
#	195995
#	206385
#	219223
#	232278
#
# Disc length: 3287 seconds
#
# Revision: 3
# Processed by: cddbd v1.5.2PL0 Copyright (c) Steve Scherf et al.
# Submitted via: CDex 1.70beta2
#
DISCID=230cd514
DTITLE=Various Artist - The Best of Chess Rock-n-Roll
DYEAR=1989
DGENRE=Rock and Roll
TTITLE0=Chuck Berry - Maybellene
TTITLE1=Bo Diddley - Bo Diddley
TTITLE2=Jackie Brenston and his Delta Kings - Rocket 88
TTITLE3=Bobby Charles - See You Later Alligator
TTITLE4=Dale Hawkins - Suzie Q
TTITLE5=Chuck Berry - Johnny B. Good
TTITLE6=Moonglows - Sincerely
TTITLE7=Clarence Frogman Henry - Ain't Got No Home
TTITLE8=Flamingos - I'll Be Home
TTITLE9=Bo Diddley - Who Do You Love
TTITLE10=Tune Weavers - Happy Birthday Baby
TTITLE11=Students - I'm So Young
TTITLE12=Monotones - Book of Love
TTITLE13=Lee Andrew and the Hearts - Teardrops
TTITLE14=Harvey and the Moonglows - 10 Commandments of Love
TTITLE15=Sensations - Let Me In
TTITLE16=Johnnie and Joe - Over The Mountain, Across the Sea
TTITLE17=Tommy Tucker - High Heel Sneakers
TTITLE18=Dave Baby Cortez - Rinky Dink
TTITLE19=Jaynetts - Sally Go Round the Roses
EXTD=#2 YEAR: 1989
EXTT0=
EXTT1=
EXTT2=
EXTT3=
EXTT4=
EXTT5=
EXTT6=
EXTT7=
EXTT8=
EXTT9=
EXTT10=
EXTT11=
EXTT12=
EXTT13=
EXTT14=
EXTT15=
EXTT16=
EXTT17=
EXTT18=
EXTT19=
PLAYORDER=
